<?xml version="1.0" encoding="UTF-8" standalone="no"?>
<!DOCTYPE svg PUBLIC "-//W3C//DTD SVG 1.1//EN"
 "http://www.w3.org/Graphics/SVG/1.1/DTD/svg11.dtd">
<!-- Generated by graphviz version 2.43.0 (0)
 -->
<!-- Title: dependency&#45;cruiser output Pages: 1 -->
<svg width="590pt" height="706pt"
 viewBox="0.00 0.00 590.00 706.00" xmlns="http://www.w3.org/2000/svg" xmlns:xlink="http://www.w3.org/1999/xlink">
<g id="graph0" class="graph" transform="scale(1 1) rotate(0) translate(4 702)">
<title>dependency&#45;cruiser output</title>
<polygon fill="white" stroke="transparent" points="-4,4 -4,-702 586,-702 586,4 -4,4"/>
<g id="clust1" class="cluster">
<title>cluster_node_modules</title>
<path fill="#ffffff" stroke="black" stroke-width="2" d="M477,-198C477,-198 562,-198 562,-198 568,-198 574,-204 574,-210 574,-210 574,-418 574,-418 574,-424 568,-430 562,-430 562,-430 477,-430 477,-430 471,-430 465,-424 465,-418 465,-418 465,-210 465,-210 465,-204 471,-198 477,-198"/>
<text text-anchor="middle" x="519.5" y="-418.8" font-family="Helvetica,sans-Serif" font-weight="bold" font-size="9.00">node_modules</text>
</g>
<g id="clust2" class="cluster">
<title>cluster_src</title>
<path fill="#ffffff" stroke="black" stroke-width="2" d="M20,-494C20,-494 543.5,-494 543.5,-494 549.5,-494 555.5,-500 555.5,-506 555.5,-506 555.5,-678 555.5,-678 555.5,-684 549.5,-690 543.5,-690 543.5,-690 20,-690 20,-690 14,-690 8,-684 8,-678 8,-678 8,-506 8,-506 8,-500 14,-494 20,-494"/>
<text text-anchor="middle" x="281.75" y="-678.8" font-family="Helvetica,sans-Serif" font-weight="bold" font-size="9.00">src</text>
</g>
<g id="clust3" class="cluster">
<title>cluster_vite</title>
<path fill="#ffffff" stroke="black" stroke-width="2" d="M108,-8C108,-8 154,-8 154,-8 160,-8 166,-14 166,-20 166,-20 166,-48 166,-48 166,-54 160,-60 154,-60 154,-60 108,-60 108,-60 102,-60 96,-54 96,-48 96,-48 96,-20 96,-20 96,-14 102,-8 108,-8"/>
<text text-anchor="middle" x="131" y="-48.8" font-family="Helvetica,sans-Serif" font-weight="bold" font-size="9.00">vite</text>
</g>
<!-- node_modules/@mediapipe -->
<g id="node1" class="node">
<title>node_modules/@mediapipe</title>
<g id="a_node1"><a xlink:href="https://www.npmjs.com/package/" xlink:title="@mediapipe">
<polygon fill="#c40b0a" fill-opacity="0.101961" stroke="black" points="556,-344 485,-344 483,-342 483,-326 554,-326 556,-328 556,-344"/>
<polyline fill="none" stroke="black" points="554,-342 483,-342 "/>
<polyline fill="none" stroke="black" points="554,-342 554,-326 "/>
<polyline fill="none" stroke="black" points="554,-342 556,-344 "/>
<text text-anchor="start" x="491" y="-332.8" font-family="Helvetica,sans-Serif" font-size="9.00" fill="#c40b0a">@mediapipe</text>
</a>
</g>
</g>
<!-- node_modules/@react&#45;three -->
<g id="node2" class="node">
<title>node_modules/@react&#45;three</title>
<g id="a_node2"><a xlink:href="https://www.npmjs.com/package/" xlink:title="@react&#45;three">
<polygon fill="#c40b0a" fill-opacity="0.101961" stroke="black" points="557.5,-314 483.5,-314 481.5,-312 481.5,-296 555.5,-296 557.5,-298 557.5,-314"/>
<polyline fill="none" stroke="black" points="555.5,-312 481.5,-312 "/>
<polyline fill="none" stroke="black" points="555.5,-312 555.5,-296 "/>
<polyline fill="none" stroke="black" points="555.5,-312 557.5,-314 "/>
<text text-anchor="start" x="489.5" y="-302.8" font-family="Helvetica,sans-Serif" font-size="9.00" fill="#c40b0a">@react&#45;three</text>
</a>
</g>
</g>
<!-- node_modules/@tensorflow -->
<g id="node3" class="node">
<title>node_modules/@tensorflow</title>
<g id="a_node3"><a xlink:href="https://www.npmjs.com/package/" xlink:title="@tensorflow">
<polygon fill="#c40b0a" fill-opacity="0.101961" stroke="black" points="556,-404 485,-404 483,-402 483,-386 554,-386 556,-388 556,-404"/>
<polyline fill="none" stroke="black" points="554,-402 483,-402 "/>
<polyline fill="none" stroke="black" points="554,-402 554,-386 "/>
<polyline fill="none" stroke="black" points="554,-402 556,-404 "/>
<text text-anchor="start" x="491" y="-392.8" font-family="Helvetica,sans-Serif" font-size="9.00" fill="#c40b0a">@tensorflow</text>
</a>
</g>
</g>
<!-- node_modules/react -->
<g id="node4" class="node">
<title>node_modules/react</title>
<g id="a_node4"><a xlink:href="https://www.npmjs.com/package/react" xlink:title="react">
<polygon fill="#c40b0a" fill-opacity="0.101961" stroke="black" points="546.5,-284 494.5,-284 492.5,-282 492.5,-266 544.5,-266 546.5,-268 546.5,-284"/>
<polyline fill="none" stroke="black" points="544.5,-282 492.5,-282 "/>
<polyline fill="none" stroke="black" points="544.5,-282 544.5,-266 "/>
<polyline fill="none" stroke="black" points="544.5,-282 546.5,-284 "/>
<text text-anchor="start" x="507.5" y="-272.8" font-family="Helvetica,sans-Serif" font-size="9.00" fill="#c40b0a">react</text>
</a>
</g>
</g>
<!-- node_modules/react&#45;dom -->
<g id="node5" class="node">
<title>node_modules/react&#45;dom</title>
<g id="a_node5"><a xlink:href="https://www.npmjs.com/package/react-dom" xlink:title="react&#45;dom">
<polygon fill="#c40b0a" fill-opacity="0.101961" stroke="black" points="551,-224 490,-224 488,-222 488,-206 549,-206 551,-208 551,-224"/>
<polyline fill="none" stroke="black" points="549,-222 488,-222 "/>
<polyline fill="none" stroke="black" points="549,-222 549,-206 "/>
<polyline fill="none" stroke="black" points="549,-222 551,-224 "/>
<text text-anchor="start" x="496" y="-212.8" font-family="Helvetica,sans-Serif" font-size="9.00" fill="#c40b0a">react&#45;dom</text>
</a>
</g>
</g>
<!-- node_modules/react&#45;router&#45;dom -->
<g id="node6" class="node">
<title>node_modules/react&#45;router&#45;dom</title>
<g id="a_node6"><a xlink:href="https://www.npmjs.com/package/react-router-dom" xlink:title="react&#45;router&#45;dom">
<polygon fill="#c40b0a" fill-opacity="0.101961" stroke="black" points="566,-254 475,-254 473,-252 473,-236 564,-236 566,-238 566,-254"/>
<polyline fill="none" stroke="black" points="564,-252 473,-252 "/>
<polyline fill="none" stroke="black" points="564,-252 564,-236 "/>
<polyline fill="none" stroke="black" points="564,-252 566,-254 "/>
<text text-anchor="start" x="481" y="-242.8" font-family="Helvetica,sans-Serif" font-size="9.00" fill="#c40b0a">react&#45;router&#45;dom</text>
</a>
</g>
</g>
<!-- node_modules/zustand -->
<g id="node7" class="node">
<title>node_modules/zustand</title>
<g id="a_node7"><a xlink:href="https://www.npmjs.com/package/zustand" xlink:title="zustand">
<polygon fill="#c40b0a" fill-opacity="0.101961" stroke="black" points="546.5,-374 494.5,-374 492.5,-372 492.5,-356 544.5,-356 546.5,-358 546.5,-374"/>
<polyline fill="none" stroke="black" points="544.5,-372 492.5,-372 "/>
<polyline fill="none" stroke="black" points="544.5,-372 544.5,-356 "/>
<polyline fill="none" stroke="black" points="544.5,-372 546.5,-374 "/>
<text text-anchor="start" x="501" y="-362.8" font-family="Helvetica,sans-Serif" font-size="9.00" fill="#c40b0a">zustand</text>
</a>
</g>
</g>
<!-- src/App.tsx -->
<g id="node8" class="node">
<title>src/App.tsx</title>
<g id="a_node8"><a xlink:href="src/App.tsx" xlink:title="App.tsx">
<path fill="#bbfeff" stroke="black" d="M152,-542C152,-542 110,-542 110,-542 107,-542 104,-539 104,-536 104,-536 104,-530 104,-530 104,-527 107,-524 110,-524 110,-524 152,-524 152,-524 155,-524 158,-527 158,-530 158,-530 158,-536 158,-536 158,-539 155,-542 152,-542"/>
<text text-anchor="start" x="113.5" y="-530.8" font-family="Helvetica,sans-Serif" font-size="9.00">App.tsx</text>
</a>
</g>
</g>
<!-- src/App.tsx&#45;&gt;node_modules/react -->
<g id="edge6" class="edge">
<title>src/App.tsx&#45;&gt;node_modules/react</title>
<path fill="none" stroke="#000000" stroke-opacity="0.200000" d="M131.89,-523.87C131.92,-479.54 138.51,-285.75 249,-206 324.06,-151.82 391.7,-151.38 457,-217 470.71,-230.78 451.88,-245.65 465,-260 470.55,-266.07 478.34,-269.76 486.26,-271.98"/>
<polygon fill="#000000" fill-opacity="0.200000" stroke="#000000" stroke-opacity="0.200000" points="485.98,-274.08 492.3,-273.41 486.95,-269.99 485.98,-274.08"/>
</g>
<!-- src/App.tsx&#45;&gt;node_modules/react&#45;router&#45;dom -->
<g id="edge7" class="edge">
<title>src/App.tsx&#45;&gt;node_modules/react&#45;router&#45;dom</title>
<path fill="none" stroke="#000000" stroke-opacity="0.200000" d="M132.16,-523.97C133.11,-477.62 139.31,-266.47 174,-213 227.4,-130.7 294.2,-137.74 389,-163 422.67,-171.97 435.52,-174.57 457,-202 464.98,-212.19 455.83,-220.87 465,-230 465.87,-230.87 466.79,-231.69 467.75,-232.46"/>
<polygon fill="#000000" fill-opacity="0.200000" stroke="#000000" stroke-opacity="0.200000" points="466.69,-234.28 472.83,-235.94 469.07,-230.82 466.69,-234.28"/>
</g>
<!-- src/components -->
<g id="node9" class="node">
<title>src/components</title>
<g id="a_node9"><a xlink:href="src/components" xlink:title="components">
<polygon fill="#ffffcc" stroke="black" points="322,-564 251,-564 249,-562 249,-546 320,-546 322,-548 322,-564"/>
<polyline fill="none" stroke="black" points="320,-562 249,-562 "/>
<polyline fill="none" stroke="black" points="320,-562 320,-546 "/>
<polyline fill="none" stroke="black" points="320,-562 322,-564 "/>
<text text-anchor="start" x="257" y="-552.8" font-family="Helvetica,sans-Serif" font-size="9.00">components</text>
</a>
</g>
</g>
<!-- src/App.tsx&#45;&gt;src/components -->
<g id="edge1" class="edge">
<title>src/App.tsx&#45;&gt;src/components</title>
<path fill="none" stroke="#000000" stroke-width="2" stroke-opacity="0.200000" d="M158.22,-536.78C181.49,-540.14 215.91,-545.1 242.93,-549"/>
<polygon fill="#000000" fill-opacity="0.200000" stroke="#000000" stroke-width="2" stroke-opacity="0.200000" points="242.69,-551.09 248.93,-549.87 243.29,-546.93 242.69,-551.09"/>
</g>
<!-- src/modules -->
<g id="node10" class="node">
<title>src/modules</title>
<g id="a_node10"><a xlink:href="src/modules" xlink:title="modules">
<polygon fill="#ffffcc" stroke="black" points="457,-580 404,-580 402,-578 402,-562 455,-562 457,-564 457,-580"/>
<polyline fill="none" stroke="black" points="455,-578 402,-578 "/>
<polyline fill="none" stroke="black" points="455,-578 455,-562 "/>
<polyline fill="none" stroke="black" points="455,-578 457,-580 "/>
<text text-anchor="start" x="410" y="-568.8" font-family="Helvetica,sans-Serif" font-size="9.00">modules</text>
</a>
</g>
</g>
<!-- src/App.tsx&#45;&gt;src/modules -->
<g id="edge2" class="edge">
<title>src/App.tsx&#45;&gt;src/modules</title>
<path fill="none" stroke="#000000" stroke-width="2" stroke-opacity="0.200000" d="M158.27,-541.02C161.25,-542.89 163.95,-545.19 166,-548 186.01,-575.44 151.44,-598.61 174,-624 196.7,-649.55 215.06,-637 249,-641 310.8,-648.28 335.36,-673.54 389,-642 409.4,-630.01 420.02,-603.25 424.92,-586.22"/>
<polygon fill="#000000" fill-opacity="0.200000" stroke="#000000" stroke-width="2" stroke-opacity="0.200000" points="427.06,-586.35 426.58,-580.02 423.01,-585.27 427.06,-586.35"/>
</g>
<!-- src/plugins -->
<g id="node11" class="node">
<title>src/plugins</title>
<g id="a_node11"><a xlink:href="src/plugins" xlink:title="plugins">
<polygon fill="#ffffcc" stroke="black" points="312.5,-534 260.5,-534 258.5,-532 258.5,-516 310.5,-516 312.5,-518 312.5,-534"/>
<polyline fill="none" stroke="black" points="310.5,-532 258.5,-532 "/>
<polyline fill="none" stroke="black" points="310.5,-532 310.5,-516 "/>
<polyline fill="none" stroke="black" points="310.5,-532 312.5,-534 "/>
<text text-anchor="start" x="268.5" y="-522.8" font-family="Helvetica,sans-Serif" font-size="9.00">plugins</text>
</a>
</g>
</g>
<!-- src/App.tsx&#45;&gt;src/plugins -->
<g id="edge3" class="edge">
<title>src/App.tsx&#45;&gt;src/plugins</title>
<path fill="none" stroke="#000000" stroke-width="2" stroke-opacity="0.200000" d="M158.22,-531.62C184.26,-530.26 224.26,-528.16 252.24,-526.69"/>
<polygon fill="#000000" fill-opacity="0.200000" stroke="#000000" stroke-width="2" stroke-opacity="0.200000" points="252.49,-528.78 258.37,-526.37 252.27,-524.59 252.49,-528.78"/>
</g>
<!-- src/routes.tsx -->
<g id="node12" class="node">
<title>src/routes.tsx</title>
<g id="a_node12"><a xlink:href="src/routes.tsx" xlink:title="routes.tsx">
<path fill="#bbfeff" stroke="black" d="M230,-520C230,-520 180,-520 180,-520 177,-520 174,-517 174,-514 174,-514 174,-508 174,-508 174,-505 177,-502 180,-502 180,-502 230,-502 230,-502 233,-502 236,-505 236,-508 236,-508 236,-514 236,-514 236,-517 233,-520 230,-520"/>
<text text-anchor="start" x="182" y="-508.8" font-family="Helvetica,sans-Serif" font-size="9.00">routes.tsx</text>
</a>
</g>
</g>
<!-- src/App.tsx&#45;&gt;src/routes.tsx -->
<g id="edge4" class="edge">
<title>src/App.tsx&#45;&gt;src/routes.tsx</title>
<path fill="none" stroke="#000000" stroke-width="2" stroke-opacity="0.200000" d="M158.4,-524.93C161.61,-523.95 164.93,-522.94 168.25,-521.92"/>
<polygon fill="#000000" fill-opacity="0.200000" stroke="#000000" stroke-width="2" stroke-opacity="0.200000" points="169.07,-523.87 174.2,-520.11 167.84,-519.85 169.07,-523.87"/>
</g>
<!-- src/stores -->
<g id="node13" class="node">
<title>src/stores</title>
<g id="a_node13"><a xlink:href="src/stores" xlink:title="stores">
<polygon fill="#ffffcc" stroke="black" points="389,-636 337,-636 335,-634 335,-618 387,-618 389,-620 389,-636"/>
<polyline fill="none" stroke="black" points="387,-634 335,-634 "/>
<polyline fill="none" stroke="black" points="387,-634 387,-618 "/>
<polyline fill="none" stroke="black" points="387,-634 389,-636 "/>
<text text-anchor="start" x="348" y="-624.8" font-family="Helvetica,sans-Serif" font-size="9.00">stores</text>
</a>
</g>
</g>
<!-- src/App.tsx&#45;&gt;src/stores -->
<g id="edge5" class="edge">
<title>src/App.tsx&#45;&gt;src/stores</title>
<path fill="none" stroke="#000000" stroke-width="2" stroke-opacity="0.200000" d="M158.18,-541.08C161.18,-542.94 163.9,-545.22 166,-548 181.67,-568.78 155.37,-587.83 174,-606 214.91,-645.89 287.2,-641.08 328.9,-634.02"/>
<polygon fill="#000000" fill-opacity="0.200000" stroke="#000000" stroke-width="2" stroke-opacity="0.200000" points="329.29,-636.09 334.83,-632.97 328.55,-631.95 329.29,-636.09"/>
</g>
<!-- src/components&#45;&gt;node_modules/@mediapipe -->
<g id="edge15" class="edge">
<title>src/components&#45;&gt;node_modules/@mediapipe</title>
<path fill="none" stroke="#000000" stroke-opacity="0.200000" d="M315.47,-545.94C317.93,-544.27 320.18,-542.31 322,-540 344.01,-512.04 316.43,-491.35 335,-461 370.17,-403.53 416.24,-424.66 457,-371 463.04,-363.05 457.63,-356.74 465,-350 468.56,-346.75 472.76,-344.2 477.22,-342.2"/>
<polygon fill="#000000" fill-opacity="0.200000" stroke="#000000" stroke-opacity="0.200000" points="478.16,-344.08 482.99,-339.94 476.63,-340.17 478.16,-344.08"/>
</g>
<!-- src/components&#45;&gt;node_modules/@react&#45;three -->
<g id="edge11" class="edge">
<title>src/components&#45;&gt;node_modules/@react&#45;three</title>
<path fill="none" stroke="#000000" stroke-opacity="0.200000" d="M315.95,-545.82C318.25,-544.18 320.33,-542.26 322,-540 355.73,-494.37 306.52,-462.07 335,-413 370.66,-351.56 400.94,-350.72 465,-320 468.37,-318.38 471.94,-316.92 475.58,-315.58"/>
<polygon fill="#000000" fill-opacity="0.200000" stroke="#000000" stroke-opacity="0.200000" points="476.34,-317.54 481.33,-313.6 474.98,-313.57 476.34,-317.54"/>
</g>
<!-- src/components&#45;&gt;node_modules/react -->
<g id="edge8" class="edge">
<title>src/components&#45;&gt;node_modules/react</title>
<path fill="none" stroke="#000000" stroke-opacity="0.200000" d="M316.02,-545.87C318.31,-544.23 320.37,-542.29 322,-540 346.33,-505.92 311.45,-386.63 335,-352 370.99,-299.06 405.07,-312.48 465,-290 471.84,-287.43 479.32,-285.07 486.46,-283.02"/>
<polygon fill="#000000" fill-opacity="0.200000" stroke="#000000" stroke-opacity="0.200000" points="487.15,-285.01 492.36,-281.37 486.02,-280.96 487.15,-285.01"/>
</g>
<!-- src/components&#45;&gt;node_modules/react&#45;router&#45;dom -->
<g id="edge17" class="edge">
<title>src/components&#45;&gt;node_modules/react&#45;router&#45;dom</title>
<path fill="none" stroke="#000000" stroke-opacity="0.200000" d="M316.06,-545.9C318.34,-544.25 320.38,-542.3 322,-540 351.85,-497.59 304.04,-348.6 335,-307 365.33,-266.25 423.77,-252 466.57,-247.17"/>
<polygon fill="#000000" fill-opacity="0.200000" stroke="#000000" stroke-opacity="0.200000" points="467.02,-249.23 472.77,-246.52 466.58,-245.06 467.02,-249.23"/>
</g>
<!-- src/components&#45;&gt;src/modules -->
<g id="edge9" class="edge">
<title>src/components&#45;&gt;src/modules</title>
<path fill="none" stroke="#000000" stroke-width="2" stroke-opacity="0.200000" d="M322.33,-559.04C344.86,-561.58 373.71,-564.83 395.65,-567.3"/>
<polygon fill="#000000" fill-opacity="0.200000" stroke="#000000" stroke-width="2" stroke-opacity="0.200000" points="395.45,-569.39 401.64,-567.97 395.92,-565.22 395.45,-569.39"/>
</g>
<!-- src/components&#45;&gt;src/stores -->
<g id="edge16" class="edge">
<title>src/components&#45;&gt;src/stores</title>
<path fill="none" stroke="#000000" stroke-width="2" stroke-opacity="0.200000" d="M293.8,-564.39C302.81,-575.67 318.93,-594.84 335,-609 336.99,-610.76 339.16,-612.49 341.37,-614.15"/>
<polygon fill="#000000" fill-opacity="0.200000" stroke="#000000" stroke-width="2" stroke-opacity="0.200000" points="340.42,-616.06 346.52,-617.86 342.88,-612.65 340.42,-616.06"/>
</g>
<!-- src/types -->
<g id="node14" class="node">
<title>src/types</title>
<g id="a_node14"><a xlink:href="src/types" xlink:title="types">
<polygon fill="#ffffcc" stroke="black" points="546.5,-630 494.5,-630 492.5,-628 492.5,-612 544.5,-612 546.5,-614 546.5,-630"/>
<polyline fill="none" stroke="black" points="544.5,-628 492.5,-628 "/>
<polyline fill="none" stroke="black" points="544.5,-628 544.5,-612 "/>
<polyline fill="none" stroke="black" points="544.5,-628 546.5,-630 "/>
<text text-anchor="start" x="507" y="-618.8" font-family="Helvetica,sans-Serif" font-size="9.00">types</text>
</a>
</g>
</g>
<!-- src/components&#45;&gt;src/types -->
<g id="edge10" class="edge">
<title>src/components&#45;&gt;src/types</title>
<path fill="none" stroke="#000000" stroke-width="2" stroke-opacity="0.200000" d="M301.41,-564.01C310.81,-569.43 323.34,-576.19 335,-581 385.58,-601.86 448.69,-612.56 486.17,-617.45"/>
<polygon fill="#000000" fill-opacity="0.200000" stroke="#000000" stroke-width="2" stroke-opacity="0.200000" points="486.2,-619.57 492.41,-618.25 486.72,-615.41 486.2,-619.57"/>
</g>
<!-- three -->
<g id="node15" class="node">
<title>three</title>
<g id="a_node15"><a xlink:title="three">
<path fill="#ffffcc" stroke="black" d="M540.5,-456C540.5,-456 498.5,-456 498.5,-456 495.5,-456 492.5,-453 492.5,-450 492.5,-450 492.5,-444 492.5,-444 492.5,-441 495.5,-438 498.5,-438 498.5,-438 540.5,-438 540.5,-438 543.5,-438 546.5,-441 546.5,-444 546.5,-444 546.5,-450 546.5,-450 546.5,-453 543.5,-456 540.5,-456"/>
<text text-anchor="middle" x="519.5" y="-444.8" font-family="Helvetica,sans-Serif" font-size="9.00">three</text>
</a>
</g>
</g>
<!-- src/components&#45;&gt;three -->
<g id="edge12" class="edge">
<title>src/components&#45;&gt;three</title>
<path fill="none" stroke="#000000" stroke-width="2" stroke-opacity="0.200000" d="M314.83,-545.91C317.49,-544.25 319.95,-542.3 322,-540 335.59,-524.79 320.39,-510.23 335,-496 376,-456.06 445.77,-447.76 486.44,-446.55"/>
<polygon fill="#000000" fill-opacity="0.200000" stroke="#000000" stroke-width="2" stroke-opacity="0.200000" points="486.52,-448.65 492.47,-446.41 486.42,-444.45 486.52,-448.65"/>
</g>
<!-- src/hooks -->
<g id="node16" class="node">
<title>src/hooks</title>
<g id="a_node16"><a xlink:href="src/hooks" xlink:title="hooks">
<polygon fill="#ffffcc" stroke="black" points="389,-550 337,-550 335,-548 335,-532 387,-532 389,-534 389,-550"/>
<polyline fill="none" stroke="black" points="387,-548 335,-548 "/>
<polyline fill="none" stroke="black" points="387,-548 387,-532 "/>
<polyline fill="none" stroke="black" points="387,-548 389,-550 "/>
<text text-anchor="start" x="348.5" y="-538.8" font-family="Helvetica,sans-Serif" font-size="9.00">hooks</text>
</a>
</g>
</g>
<!-- src/components&#45;&gt;src/hooks -->
<g id="edge13" class="edge">
<title>src/components&#45;&gt;src/hooks</title>
<path fill="none" stroke="#000000" stroke-width="2" stroke-opacity="0.200000" d="M311.72,-545.98C317.18,-544.75 323.02,-543.59 328.7,-542.6"/>
<polygon fill="#000000" fill-opacity="0.200000" stroke="#000000" stroke-width="2" stroke-opacity="0.200000" points="329.21,-544.65 334.79,-541.61 328.53,-540.51 329.21,-544.65"/>
</g>
<!-- src/config.ts -->
<g id="node17" class="node">
<title>src/config.ts</title>
<g id="a_node17"><a xlink:href="src/config.ts" xlink:title="config.ts">
<path fill="#ddfeff" stroke="black" d="M541.5,-590C541.5,-590 497.5,-590 497.5,-590 494.5,-590 491.5,-587 491.5,-584 491.5,-584 491.5,-578 491.5,-578 491.5,-575 494.5,-572 497.5,-572 497.5,-572 541.5,-572 541.5,-572 544.5,-572 547.5,-575 547.5,-578 547.5,-578 547.5,-584 547.5,-584 547.5,-587 544.5,-590 541.5,-590"/>
<text text-anchor="start" x="499.5" y="-578.8" font-family="Helvetica,sans-Serif" font-size="9.00">config.ts</text>
</a>
</g>
</g>
<!-- src/components&#45;&gt;src/config.ts -->
<g id="edge14" class="edge">
<title>src/components&#45;&gt;src/config.ts</title>
<path fill="none" stroke="#000000" stroke-width="2" stroke-opacity="0.200000" d="M312.71,-564.15C335.86,-571.72 370.71,-581.87 402,-586 426.23,-589.2 432.58,-586.99 457,-586 466.13,-585.63 476.01,-584.95 485.12,-584.21"/>
<polygon fill="#000000" fill-opacity="0.200000" stroke="#000000" stroke-width="2" stroke-opacity="0.200000" points="485.48,-586.29 491.28,-583.69 485.13,-582.1 485.48,-586.29"/>
</g>
<!-- src/kernel -->
<g id="node18" class="node">
<title>src/kernel</title>
<g id="a_node18"><a xlink:href="src/kernel" xlink:title="kernel">
<polygon fill="#ffffcc" stroke="black" points="389,-520 337,-520 335,-518 335,-502 387,-502 389,-504 389,-520"/>
<polyline fill="none" stroke="black" points="387,-518 335,-518 "/>
<polyline fill="none" stroke="black" points="387,-518 387,-502 "/>
<polyline fill="none" stroke="black" points="387,-518 389,-520 "/>
<text text-anchor="start" x="348" y="-508.8" font-family="Helvetica,sans-Serif" font-size="9.00">kernel</text>
</a>
</g>
</g>
<!-- src/components&#45;&gt;src/kernel -->
<g id="edge18" class="edge">
<title>src/components&#45;&gt;src/kernel</title>
<path fill="none" stroke="#000000" stroke-width="2" stroke-opacity="0.200000" d="M311.66,-545.96C315.26,-544.21 318.82,-542.23 322,-540 328.95,-535.13 328.36,-531.29 335,-526 336.06,-525.16 337.17,-524.33 338.32,-523.52"/>
<polygon fill="#000000" fill-opacity="0.200000" stroke="#000000" stroke-width="2" stroke-opacity="0.200000" points="339.6,-525.19 343.46,-520.15 337.29,-521.68 339.6,-525.19"/>
</g>
<!-- src/modules&#45;&gt;node_modules/@mediapipe -->
<g id="edge35" class="edge">
<title>src/modules&#45;&gt;node_modules/@mediapipe</title>
<path fill="none" stroke="#000000" stroke-opacity="0.200000" d="M435.05,-561.77C441.29,-548.64 452.24,-523.63 457,-501 460.46,-484.56 454.5,-363.11 465,-350 468.25,-345.94 472.5,-342.93 477.19,-340.7"/>
<polygon fill="#000000" fill-opacity="0.200000" stroke="#000000" stroke-opacity="0.200000" points="478.08,-342.6 482.87,-338.42 476.52,-338.71 478.08,-342.6"/>
</g>
<!-- src/modules&#45;&gt;node_modules/@tensorflow -->
<g id="edge34" class="edge">
<title>src/modules&#45;&gt;node_modules/@tensorflow</title>
<path fill="none" stroke="#000000" stroke-opacity="0.200000" d="M448.81,-561.86C452.04,-559.42 455.01,-556.47 457,-553 470.39,-529.62 451.71,-455.44 465,-432 471.07,-421.29 481.67,-413 491.84,-407"/>
<polygon fill="#000000" fill-opacity="0.200000" stroke="#000000" stroke-opacity="0.200000" points="492.88,-408.82 497.1,-404.07 490.83,-405.16 492.88,-408.82"/>
</g>
<!-- src/modules&#45;&gt;src/types -->
<g id="edge32" class="edge">
<title>src/modules&#45;&gt;src/types</title>
<path fill="none" stroke="#000000" stroke-opacity="0.200000" d="M441.94,-580.13C448.49,-585.14 456.97,-591.27 465,-596 473.18,-600.82 482.45,-605.42 490.94,-609.34"/>
<polygon fill="none" stroke="#000000" stroke-opacity="0.200000" points="490.34,-611.37 496.68,-611.93 492.07,-607.54 490.34,-611.37"/>
</g>
<!-- src/modules&#45;&gt;three -->
<g id="edge33" class="edge">
<title>src/modules&#45;&gt;three</title>
<path fill="none" stroke="#000000" stroke-width="2" stroke-opacity="0.200000" d="M448.75,-561.82C451.99,-559.39 454.97,-556.45 457,-553 467.28,-535.49 452.04,-477.62 465,-462 470.35,-455.55 478.23,-451.75 486.3,-449.55"/>
<polygon fill="#000000" fill-opacity="0.200000" stroke="#000000" stroke-width="2" stroke-opacity="0.200000" points="487.09,-451.52 492.48,-448.15 486.16,-447.43 487.09,-451.52"/>
</g>
<!-- src/modules&#45;&gt;src/config.ts -->
<g id="edge31" class="edge">
<title>src/modules&#45;&gt;src/config.ts</title>
<path fill="none" stroke="#000000" stroke-width="2" stroke-opacity="0.200000" d="M457.38,-574.05C466.25,-575.06 476.23,-576.2 485.5,-577.25"/>
<polygon fill="#000000" fill-opacity="0.200000" stroke="#000000" stroke-width="2" stroke-opacity="0.200000" points="485.28,-579.34 491.48,-577.93 485.76,-575.17 485.28,-579.34"/>
</g>
<!-- vitest -->
<g id="node19" class="node">
<title>vitest</title>
<g id="a_node19"><a xlink:title="vitest">
<path fill="#ffffcc" stroke="black" d="M540.5,-486C540.5,-486 498.5,-486 498.5,-486 495.5,-486 492.5,-483 492.5,-480 492.5,-480 492.5,-474 492.5,-474 492.5,-471 495.5,-468 498.5,-468 498.5,-468 540.5,-468 540.5,-468 543.5,-468 546.5,-471 546.5,-474 546.5,-474 546.5,-480 546.5,-480 546.5,-483 543.5,-486 540.5,-486"/>
<text text-anchor="middle" x="519.5" y="-474.8" font-family="Helvetica,sans-Serif" font-size="9.00">vitest</text>
</a>
</g>
</g>
<!-- src/modules&#45;&gt;vitest -->
<g id="edge36" class="edge">
<title>src/modules&#45;&gt;vitest</title>
<path fill="none" stroke="#000000" stroke-width="2" stroke-opacity="0.200000" d="M448.37,-561.96C451.72,-559.49 454.84,-556.51 457,-553 471.55,-529.33 446.65,-511.86 465,-491 470.46,-484.8 478.29,-481.18 486.29,-479.12"/>
<polygon fill="#000000" fill-opacity="0.200000" stroke="#000000" stroke-width="2" stroke-opacity="0.200000" points="486.97,-481.12 492.4,-477.82 486.09,-477.01 486.97,-481.12"/>
</g>
<!-- src/plugins&#45;&gt;node_modules/react -->
<g id="edge43" class="edge">
<title>src/plugins&#45;&gt;node_modules/react</title>
<path fill="none" stroke="#000000" stroke-opacity="0.200000" d="M287.09,-515.96C289.77,-477.64 302.17,-329.26 335,-299 356.42,-279.25 439.58,-275.44 486.26,-274.9"/>
<polygon fill="none" stroke="#000000" stroke-opacity="0.200000" points="486.34,-276.99 492.32,-274.84 486.3,-272.79 486.34,-276.99"/>
</g>
<!-- src/plugins&#45;&gt;src/kernel -->
<g id="edge42" class="edge">
<title>src/plugins&#45;&gt;src/kernel</title>
<path fill="none" stroke="#000000" stroke-width="2" stroke-opacity="0.200000" d="M312.56,-520.1C317.74,-519.13 323.25,-518.09 328.62,-517.08"/>
<polygon fill="#000000" fill-opacity="0.200000" stroke="#000000" stroke-width="2" stroke-opacity="0.200000" points="329.32,-519.09 334.83,-515.92 328.55,-514.96 329.32,-519.09"/>
</g>
<!-- src/routes.tsx&#45;&gt;node_modules/react -->
<g id="edge46" class="edge">
<title>src/routes.tsx&#45;&gt;node_modules/react</title>
<path fill="none" stroke="#000000" stroke-opacity="0.200000" d="M205.99,-501.81C206.14,-459.13 209.2,-280.84 249,-247 319.43,-187.12 376.3,-201.91 457,-247 462.92,-250.31 459.58,-255.91 465,-260 471.14,-264.63 478.64,-267.83 486.06,-270.04"/>
<polygon fill="#000000" fill-opacity="0.200000" stroke="#000000" stroke-opacity="0.200000" points="485.9,-272.17 492.24,-271.68 486.98,-268.11 485.9,-272.17"/>
</g>
<!-- src/routes.tsx&#45;&gt;node_modules/react&#45;router&#45;dom -->
<g id="edge47" class="edge">
<title>src/routes.tsx&#45;&gt;node_modules/react&#45;router&#45;dom</title>
<path fill="none" stroke="#000000" stroke-opacity="0.200000" d="M205.78,-501.7C204.92,-454.95 203.65,-246.34 249,-206 321.17,-141.8 372.77,-201.32 465,-230 469.53,-231.41 474.3,-232.83 479.05,-234.21"/>
<polygon fill="#000000" fill-opacity="0.200000" stroke="#000000" stroke-opacity="0.200000" points="478.68,-236.29 485.02,-235.93 479.84,-232.25 478.68,-236.29"/>
</g>
<!-- src/routes.tsx&#45;&gt;src/components -->
<g id="edge44" class="edge">
<title>src/routes.tsx&#45;&gt;src/components</title>
<path fill="none" stroke="#000000" stroke-width="2" stroke-opacity="0.200000" d="M218.02,-520.03C226.43,-526.12 238.07,-534.08 249,-540 251.18,-541.18 253.48,-542.34 255.81,-543.45"/>
<polygon fill="#000000" fill-opacity="0.200000" stroke="#000000" stroke-width="2" stroke-opacity="0.200000" points="254.95,-545.36 261.28,-545.95 256.7,-541.55 254.95,-545.36"/>
</g>
<!-- src/routes.tsx&#45;&gt;src/kernel -->
<g id="edge45" class="edge">
<title>src/routes.tsx&#45;&gt;src/kernel</title>
<path fill="none" stroke="#000000" stroke-width="2" stroke-opacity="0.200000" d="M236.07,-510.21C240.41,-510.12 244.82,-510.05 249,-510 281.44,-509.62 289.56,-509.58 322,-510 324.23,-510.03 326.53,-510.07 328.85,-510.11"/>
<polygon fill="#000000" fill-opacity="0.200000" stroke="#000000" stroke-width="2" stroke-opacity="0.200000" points="328.95,-512.21 334.99,-510.24 329.03,-508.01 328.95,-512.21"/>
</g>
<!-- src/stores&#45;&gt;node_modules/zustand -->
<g id="edge49" class="edge">
<title>src/stores&#45;&gt;node_modules/zustand</title>
<path fill="none" stroke="#000000" stroke-opacity="0.200000" d="M367.73,-617.62C374.76,-603.85 388.59,-577.47 402,-556 424.47,-520.02 442.54,-517.88 457,-478 464.45,-457.46 451.1,-396.86 465,-380 470.33,-373.53 478.2,-369.73 486.28,-367.52"/>
<polygon fill="#000000" fill-opacity="0.200000" stroke="#000000" stroke-opacity="0.200000" points="487.06,-369.5 492.45,-366.13 486.14,-365.4 487.06,-369.5"/>
</g>
<!-- src/stores&#45;&gt;src/types -->
<g id="edge48" class="edge">
<title>src/stores&#45;&gt;src/types</title>
<path fill="none" stroke="#000000" stroke-width="2" stroke-opacity="0.200000" d="M389.35,-626.75C408.2,-626.49 434.17,-625.98 457,-625 466.56,-624.59 476.94,-623.98 486.41,-623.35"/>
<polygon fill="#000000" fill-opacity="0.200000" stroke="#000000" stroke-width="2" stroke-opacity="0.200000" points="486.63,-625.44 492.48,-622.94 486.35,-621.25 486.63,-625.44"/>
</g>
<!-- src/hooks&#45;&gt;node_modules/@mediapipe -->
<g id="edge21" class="edge">
<title>src/hooks&#45;&gt;node_modules/@mediapipe</title>
<path fill="none" stroke="#000000" stroke-opacity="0.200000" d="M381.38,-531.85C384.09,-530.11 386.72,-528.14 389,-526 428.94,-488.4 438.38,-474.6 457,-423 462.54,-407.65 454.45,-362.45 465,-350 468.32,-346.09 472.57,-343.15 477.22,-340.96"/>
<polygon fill="#000000" fill-opacity="0.200000" stroke="#000000" stroke-opacity="0.200000" points="478.04,-342.89 482.83,-338.71 476.48,-338.99 478.04,-342.89"/>
</g>
<!-- src/hooks&#45;&gt;node_modules/react -->
<g id="edge22" class="edge">
<title>src/hooks&#45;&gt;node_modules/react</title>
<path fill="none" stroke="#000000" stroke-opacity="0.200000" d="M383.37,-531.91C385.54,-530.22 387.5,-528.26 389,-526 415.2,-486.42 382.48,-463.26 402,-420 417.15,-386.42 441.93,-391.61 457,-358 463.22,-344.12 455.11,-301.57 465,-290 470.39,-283.69 478.21,-279.93 486.21,-277.71"/>
<polygon fill="#000000" fill-opacity="0.200000" stroke="#000000" stroke-opacity="0.200000" points="486.94,-279.7 492.32,-276.3 486,-275.6 486.94,-279.7"/>
</g>
<!-- src/hooks&#45;&gt;src/components -->
<g id="edge19" class="edge">
<title>src/hooks&#45;&gt;src/components</title>
<path fill="none" stroke="#000000" stroke-width="2" stroke-opacity="0.200000" d="M335.76,-550.03C333.27,-550.59 330.7,-551.13 328.1,-551.66"/>
<polygon fill="#000000" fill-opacity="0.200000" stroke="#000000" stroke-width="2" stroke-opacity="0.200000" points="327.5,-549.63 322,-552.82 328.29,-553.76 327.5,-549.63"/>
</g>
<!-- src/hooks&#45;&gt;src/modules -->
<g id="edge23" class="edge">
<title>src/hooks&#45;&gt;src/modules</title>
<path fill="none" stroke="#000000" stroke-width="2" stroke-opacity="0.200000" d="M382.65,-550C389.01,-552.91 396.16,-556.19 402.88,-559.27"/>
<polygon fill="#000000" fill-opacity="0.200000" stroke="#000000" stroke-width="2" stroke-opacity="0.200000" points="402.08,-561.21 408.41,-561.8 403.83,-557.39 402.08,-561.21"/>
</g>
<!-- src/hooks&#45;&gt;src/types -->
<g id="edge20" class="edge">
<title>src/hooks&#45;&gt;src/types</title>
<path fill="none" stroke="#000000" stroke-opacity="0.200000" d="M368.73,-550.32C375.47,-560.52 387.59,-576.68 402,-586 427.66,-602.6 461.55,-611.62 486.15,-616.32"/>
<polygon fill="none" stroke="#000000" stroke-opacity="0.200000" points="485.92,-618.41 492.2,-617.43 486.67,-614.28 485.92,-618.41"/>
</g>
<!-- src/kernel&#45;&gt;node_modules/react -->
<g id="edge24" class="edge">
<title>src/kernel&#45;&gt;node_modules/react</title>
<path fill="none" stroke="#000000" stroke-opacity="0.200000" d="M364.13,-501.97C367.24,-479.51 377.4,-419.87 402,-377 419.68,-346.19 439.53,-349.93 457,-319 463.57,-307.36 455.57,-299.47 465,-290 470.75,-284.23 478.53,-280.63 486.37,-278.4"/>
<polygon fill="none" stroke="#000000" stroke-opacity="0.200000" points="487.02,-280.41 492.35,-276.95 486.03,-276.33 487.02,-280.41"/>
</g>
<!-- src/kernel&#45;&gt;node_modules/zustand -->
<g id="edge25" class="edge">
<title>src/kernel&#45;&gt;node_modules/zustand</title>
<path fill="none" stroke="#000000" stroke-opacity="0.200000" d="M377.47,-501.9C398.62,-487.78 437.56,-458.49 457,-423 466.34,-405.95 451.88,-394.35 465,-380 470.55,-373.93 478.34,-370.24 486.26,-368.02"/>
<polygon fill="none" stroke="#000000" stroke-opacity="0.200000" points="486.95,-370.01 492.3,-366.59 485.98,-365.92 486.95,-370.01"/>
</g>
<!-- src/kernel&#45;&gt;vitest -->
<g id="edge26" class="edge">
<title>src/kernel&#45;&gt;vitest</title>
<path fill="none" stroke="#000000" stroke-width="2" stroke-opacity="0.200000" d="M389.03,-505.31C415.83,-499.45 457.63,-490.31 486.45,-484.01"/>
<polygon fill="#000000" fill-opacity="0.200000" stroke="#000000" stroke-width="2" stroke-opacity="0.200000" points="486.97,-486.04 492.39,-482.71 486.08,-481.94 486.97,-486.04"/>
</g>
<!-- src/main.tsx -->
<g id="node20" class="node">
<title>src/main.tsx</title>
<g id="a_node20"><a xlink:href="src/main.tsx" xlink:title="main.tsx">
<path fill="#bbfeff" stroke="black" d="M74,-550C74,-550 30,-550 30,-550 27,-550 24,-547 24,-544 24,-544 24,-538 24,-538 24,-535 27,-532 30,-532 30,-532 74,-532 74,-532 77,-532 80,-535 80,-538 80,-538 80,-544 80,-544 80,-547 77,-550 74,-550"/>
<text text-anchor="start" x="32" y="-538.8" font-family="Helvetica,sans-Serif" font-size="9.00">main.tsx</text>
</a>
</g>
</g>
<!-- src/main.tsx&#45;&gt;node_modules/react -->
<g id="edge29" class="edge">
<title>src/main.tsx&#45;&gt;node_modules/react</title>
<path fill="none" stroke="#000000" stroke-opacity="0.200000" d="M80.05,-532.63C83.04,-530.82 85.8,-528.64 88,-526 197.11,-395.47 111.7,-311.31 174,-153 183.77,-128.17 177.32,-101 204,-101 204,-101 204,-101 286.5,-101 368.93,-101 408.47,-107.37 457,-174 468.3,-189.51 452.71,-245.26 465,-260 470.37,-266.43 478.25,-270.23 486.33,-272.44"/>
<polygon fill="#000000" fill-opacity="0.200000" stroke="#000000" stroke-opacity="0.200000" points="486.18,-274.56 492.5,-273.83 487.11,-270.46 486.18,-274.56"/>
</g>
<!-- src/main.tsx&#45;&gt;node_modules/react&#45;dom -->
<g id="edge30" class="edge">
<title>src/main.tsx&#45;&gt;node_modules/react&#45;dom</title>
<path fill="none" stroke="#000000" stroke-opacity="0.200000" d="M80.25,-533.25C83.29,-531.33 86,-528.96 88,-526 98.86,-509.93 88.43,-194.86 96,-177 121.77,-116.21 137.98,-75 204,-75 204,-75 204,-75 363,-75 437.17,-75 491.95,-164.06 511.08,-200.12"/>
<polygon fill="#000000" fill-opacity="0.200000" stroke="#000000" stroke-opacity="0.200000" points="509.41,-201.46 514.04,-205.81 513.14,-199.52 509.41,-201.46"/>
</g>
<!-- src/main.tsx&#45;&gt;src/App.tsx -->
<g id="edge27" class="edge">
<title>src/main.tsx&#45;&gt;src/App.tsx</title>
<path fill="none" stroke="#000000" stroke-width="2" stroke-opacity="0.200000" d="M80.36,-538.16C85.95,-537.58 91.88,-536.96 97.62,-536.36"/>
<polygon fill="#000000" fill-opacity="0.200000" stroke="#000000" stroke-width="2" stroke-opacity="0.200000" points="98.01,-538.44 103.76,-535.73 97.57,-534.26 98.01,-538.44"/>
</g>
<!-- src/styles -->
<g id="node21" class="node">
<title>src/styles</title>
<g id="a_node21"><a xlink:href="src/styles" xlink:title="styles">
<polygon fill="#ffffcc" stroke="black" points="158,-572 106,-572 104,-570 104,-554 156,-554 158,-556 158,-572"/>
<polyline fill="none" stroke="black" points="156,-570 104,-570 "/>
<polyline fill="none" stroke="black" points="156,-570 156,-554 "/>
<polyline fill="none" stroke="black" points="156,-570 158,-572 "/>
<text text-anchor="start" x="118" y="-560.8" font-family="Helvetica,sans-Serif" font-size="9.00">styles</text>
</a>
</g>
</g>
<!-- src/main.tsx&#45;&gt;src/styles -->
<g id="edge28" class="edge">
<title>src/main.tsx&#45;&gt;src/styles</title>
<path fill="none" stroke="#000000" stroke-width="2" stroke-opacity="0.200000" d="M80.36,-548.82C85.95,-550.41 91.88,-552.11 97.62,-553.75"/>
<polygon fill="#000000" fill-opacity="0.200000" stroke="#000000" stroke-width="2" stroke-opacity="0.200000" points="97.41,-555.87 103.76,-555.5 98.56,-551.83 97.41,-555.87"/>
</g>
<!-- src/pages -->
<g id="node22" class="node">
<title>src/pages</title>
<g id="a_node22"><a xlink:href="src/pages" xlink:title="pages">
<polygon fill="#ffffcc" stroke="black" points="232,-600 180,-600 178,-598 178,-582 230,-582 232,-584 232,-600"/>
<polyline fill="none" stroke="black" points="230,-598 178,-598 "/>
<polyline fill="none" stroke="black" points="230,-598 230,-582 "/>
<polyline fill="none" stroke="black" points="230,-598 232,-600 "/>
<text text-anchor="start" x="191" y="-588.8" font-family="Helvetica,sans-Serif" font-size="9.00">pages</text>
</a>
</g>
</g>
<!-- src/pages&#45;&gt;node_modules/react -->
<g id="edge40" class="edge">
<title>src/pages&#45;&gt;node_modules/react</title>
<path fill="none" stroke="#000000" stroke-opacity="0.200000" d="M210.43,-581.81C216.42,-569.28 227.36,-546.1 236,-526 282.88,-416.97 239.82,-348.89 335,-278 378.9,-245.3 446.53,-255.14 486.26,-265.15"/>
<polygon fill="#000000" fill-opacity="0.200000" stroke="#000000" stroke-opacity="0.200000" points="486.05,-267.27 492.39,-266.75 487.11,-263.2 486.05,-267.27"/>
</g>
<!-- src/pages&#45;&gt;src/components -->
<g id="edge37" class="edge">
<title>src/pages&#45;&gt;src/components</title>
<path fill="none" stroke="#000000" stroke-width="2" stroke-opacity="0.200000" d="M225.81,-581.92C235.94,-577.27 248.39,-571.56 259.21,-566.6"/>
<polygon fill="#000000" fill-opacity="0.200000" stroke="#000000" stroke-width="2" stroke-opacity="0.200000" points="260.12,-568.49 264.7,-564.08 258.37,-564.67 260.12,-568.49"/>
</g>
<!-- src/pages&#45;&gt;src/modules -->
<g id="edge38" class="edge">
<title>src/pages&#45;&gt;src/modules</title>
<path fill="none" stroke="#000000" stroke-width="2" stroke-opacity="0.200000" d="M232.4,-588.63C273.19,-584.96 351.44,-577.93 395.77,-573.94"/>
<polygon fill="#000000" fill-opacity="0.200000" stroke="#000000" stroke-width="2" stroke-opacity="0.200000" points="396,-576.03 401.79,-573.4 395.63,-571.85 396,-576.03"/>
</g>
<!-- src/pages&#45;&gt;src/stores -->
<g id="edge41" class="edge">
<title>src/pages&#45;&gt;src/stores</title>
<path fill="none" stroke="#000000" stroke-width="2" stroke-opacity="0.200000" d="M232.29,-597.11C258.98,-603.31 300.34,-612.91 328.94,-619.55"/>
<polygon fill="#000000" fill-opacity="0.200000" stroke="#000000" stroke-width="2" stroke-opacity="0.200000" points="328.52,-621.61 334.84,-620.92 329.47,-617.52 328.52,-621.61"/>
</g>
<!-- src/pages&#45;&gt;src/types -->
<g id="edge39" class="edge">
<title>src/pages&#45;&gt;src/types</title>
<path fill="none" stroke="#000000" stroke-width="2" stroke-opacity="0.200000" d="M222.45,-600.17C246.34,-612.87 292.46,-635.02 335,-642 387.65,-650.64 449.37,-639.18 486.13,-630.1"/>
<polygon fill="#000000" fill-opacity="0.200000" stroke="#000000" stroke-width="2" stroke-opacity="0.200000" points="486.95,-632.05 492.26,-628.55 485.92,-627.98 486.95,-632.05"/>
</g>
<!-- src/vite&#45;env.d.ts -->
<g id="node23" class="node">
<title>src/vite&#45;env.d.ts</title>
<g id="a_node23"><a xlink:href="src/vite-env.d.ts" xlink:title="vite&#45;env.d.ts">
<path fill="#ddfeff" stroke="black" d="M82,-520C82,-520 22,-520 22,-520 19,-520 16,-517 16,-514 16,-514 16,-508 16,-508 16,-505 19,-502 22,-502 22,-502 82,-502 82,-502 85,-502 88,-505 88,-508 88,-508 88,-514 88,-514 88,-517 85,-520 82,-520"/>
<text text-anchor="start" x="24" y="-508.8" font-family="Helvetica,sans-Serif" font-size="9.00">vite&#45;env.d.ts</text>
</a>
</g>
</g>
<!-- vite/client -->
<g id="node24" class="node">
<title>vite/client</title>
<g id="a_node24"><a xlink:title="client">
<path fill="#ffffcc" stroke="black" d="M152,-34C152,-34 110,-34 110,-34 107,-34 104,-31 104,-28 104,-28 104,-22 104,-22 104,-19 107,-16 110,-16 110,-16 152,-16 152,-16 155,-16 158,-19 158,-22 158,-22 158,-28 158,-28 158,-31 155,-34 152,-34"/>
<text text-anchor="start" x="118.5" y="-22.8" font-family="Helvetica,sans-Serif" font-size="9.00">client</text>
</a>
</g>
</g>
<!-- src/vite&#45;env.d.ts&#45;&gt;vite/client -->
<g id="edge50" class="edge">
<title>src/vite&#45;env.d.ts&#45;&gt;vite/client</title>
<path fill="none" stroke="#000000" stroke-width="2" stroke-opacity="0.200000" d="M53.14,-501.81C54.12,-445.59 60.91,-147.92 96,-65 100.21,-55.04 107.82,-45.72 114.78,-38.59"/>
<polygon fill="#000000" fill-opacity="0.200000" stroke="#000000" stroke-width="2" stroke-opacity="0.200000" points="116.62,-39.72 119.43,-34.02 113.68,-36.72 116.62,-39.72"/>
</g>
</g>
</svg>
